<svg xmlns="http://www.w3.org/2000/svg" width="496" height="295" viewBox="0 0 496 295">
    <metadata><?xpacket begin="﻿" id="W5M0MpCehiHzreSzNTczkc9d"?>
        <x:xmpmeta xmlns:x="adobe:ns:meta/" x:xmptk="Adobe XMP Core 5.6-c142 79.160924, 2017/07/13-01:06:39        ">
            <rdf:RDF xmlns:rdf="http://www.w3.org/1999/02/22-rdf-syntax-ns#">
                <rdf:Description rdf:about=""/>
            </rdf:RDF>
        </x:xmpmeta>


        <?xpacket end="w"?>
    </metadata>
    <defs>
        <style>
            .cls-1 {
            fill: #293a7d;
            fill-rule: evenodd;
            }
        </style>
    </defs>
    <path class="cls-1"
          d="M126.122,271.042s30.441,24.375,55.323,10.341,47.885-60.814,73.265-62.045,76.294,16,101.674,8.864,76.793-11.08,118.122-73.863S470.557,58.564,435.63,43.545,254.749-2,202.378,24.341,173.01,94.018,151.541,111.5s-24.384-1.724-64.294,7.386S-10.4,170.835,22.953,191.27,152.078,211.706,144.065,228.2,121.138,258.239,126.122,271.042Zm191.387-28.068c5.384,4.18,20.971,33.731,4.486,42.841s-50.3-2.709-56.818-16.25-23.885-41.609,4.485-38.409S310.531,237.558,317.509,242.974Z"/>
</svg>
